<svg xmlns="http://www.w3.org/2000/svg" width="395" height="250" viewBox="0 0 395 250"><g><g><g/><g><g><path fill="#f8f7f9" d="M1.3 1.25h392.401v247.5H1.3z"/><path fill="none" stroke="#b1a6f1" stroke-miterlimit="20" stroke-width="2" d="M1.3 1.25v0h392.401v247.5H1.3v0z"/></g></g><g clip-path="url(#clip-1008:46)"><g><path fill="#fddc9a" d="M31.307 740.03l196.082-97.209c6.22-3.232 55.838-27.614 204.55-99.293C580.65 471.849 573.41 368.659 551.2 326.023c-12.5-25.24-39.092-78.599-45.525-90.116-6.433-11.516 4.973-22.704 11.475-26.859 67.04-39.465 134.5-95.404 115.11-138.732C555.19-101.937 509.766-205.019 472-259.696c-37.764-54.677-80.828-36.95-93.03-32.933-9.761 3.212-84.26 44.543-120.289 64.807l-14.072-25.194c-6.434-11.517-19.238-8.58-24.837-5.672C5.748-149.058-429.765 74.08-459.621 89.59c-29.858 15.51-28.036 33.137-23.393 40.012 57.68 104.696 194.32 351.326 279.445 500.272C-118.445 778.82-11.517 765.38 31.307 740.03z"/></g><g><path fill="#fcb935" d="M260.456-365.91c131.116-60.207 218.007 25.987 242.782 71.598 16.516-46.141 117.262-105.673 204.796-79.554 186.627 55.688 145.739 229.285 128.822 265.71-48.034 103.42-275.813 414.21-312.148 437.545C488.375 352.725 273.67 87.546 224.124-4.736c-49.548-92.283-140.385-280.03 36.332-361.175z"/></g><g><path fill="#100a30" d="M-175.945 362.817c26.791 68.403 121.285 85.504 165.183 85.504l-.068 54.41c-.035 28.501 69.872 5.183 92.776-41.455 76.576 16.841 420.631-10.365 446.352-160.642 11.536-67.4-14.608-138.618-111.296-193.03-96.687-54.41-301.821-43.389-427.355 14.251-172.108 79.026-199.08 155.46-165.592 240.962z"/></g></g></g></g></svg>