<svg xmlns="http://www.w3.org/2000/svg" width="20" height="20" viewBox="0 0 20 20"><g><g><path fill="#100a30" d="M15.129 10a5.119 5.119 0 0 1-5.127 5.128A5.119 5.119 0 0 1 4.876 10a5.119 5.119 0 0 1 5.126-5.128A5.12 5.12 0 0 1 15.13 10zm-1.794 0a3.337 3.337 0 0 0-3.333-3.334A3.337 3.337 0 0 0 6.67 10a3.34 3.34 0 0 0 3.333 3.334A3.34 3.34 0 0 0 13.335 10zm3.2-5.338c0 .665-.536 1.197-1.196 1.197a1.196 1.196 0 1 1 1.196-1.196zm3.395 9.462c-.08 1.602-.446 3.02-1.615 4.19-1.17 1.174-2.588 1.54-4.19 1.616-1.65.093-6.6.093-8.25 0-1.602-.08-3.016-.447-4.19-1.616C.512 17.144.146 15.726.07 14.124c-.093-1.652-.093-6.6 0-8.252.08-1.602.442-3.021 1.615-4.19C2.86.511 4.278.145 5.875.07c1.65-.093 6.6-.093 8.25 0 1.602.08 3.02.447 4.19 1.616 1.173 1.17 1.539 2.588 1.615 4.19.093 1.652.093 6.596 0 8.248zM18.198 10c0-1.455.121-4.579-.401-5.895a3.375 3.375 0 0 0-1.9-1.901c-1.313-.518-4.44-.402-5.895-.402-1.454 0-4.578-.12-5.894.402a3.375 3.375 0 0 0-1.9 1.9C1.69 5.418 1.805 8.546 1.805 10s-.12 4.579.401 5.895a3.375 3.375 0 0 0 1.901 1.901c1.312.518 4.44.402 5.894.402 1.455 0 4.578.12 5.894-.402a3.375 3.375 0 0 0 1.901-1.9c.522-1.313.402-4.441.402-5.896z"/></g></g></svg>