<svg xmlns="http://www.w3.org/2000/svg" width="20" height="20" viewBox="0 0 20 20"><g><g><path fill="#100a30" d="M18.571 0C19.357 0 20 .647 20 1.442v17.116c0 .795-.643 1.442-1.429 1.442H1.424A1.435 1.435 0 0 1 0 18.558V1.442C0 .647.638 0 1.424 0zM6.05 17.143V7.598H3.08v9.545zm.232-12.567c0-.947-.772-1.719-1.718-1.719A1.72 1.72 0 1 0 6.28 4.576zm10.875 7.335c0-2.572-.558-4.55-3.558-4.55-1.442 0-2.41.79-2.808 1.54h-.04V7.599H7.906v9.545h2.964V12.42c0-1.246.237-2.451 1.782-2.451 1.518 0 1.54 1.424 1.54 2.531v4.643h2.964z"/></g></g></svg>