<svg xmlns="http://www.w3.org/2000/svg" width="61" height="16" viewBox="0 0 61 16"><g><g><g/><g><path fill="#fff" d="M0 15.005l1.761-.561V2.352L0 1.79V.97h7.344c3.973 0 6.357 1.663 6.357 4.642 0 2.959-2.147 4.664-5.025 4.664a8.451 8.451 0 0 1-2.362-.345l-.645-.173v4.686l1.869.561v.82H0zm5.67-6.283l1.116.086c.258.022.516.022.73.022 1.847 0 2.19-.778 2.19-3.218 0-2.72-.558-3.282-2.684-3.282H5.67z"/></g><g><path fill="#fff" d="M16.506 16c-1.546 0-2.706-.971-2.706-2.483 0-1.878 1.31-2.785 4.23-3.282l1.826-.324V8.314c0-1.533-.795-1.9-2.384-1.9-.708 0-1.224.086-1.525.172v.043c.838.173 1.182.8 1.182 1.469 0 .755-.623 1.338-1.46 1.338-.924 0-1.547-.69-1.547-1.662 0-1.965 2.599-2.764 4.51-2.764 2.878 0 4.445 1.123 4.445 4.901v3.628c0 .648.194.734 1.375.842v.864c-.559.324-1.246.712-2.298.712-1.418 0-2.298-.777-2.298-2.137-.623 1.08-1.868 2.18-3.35 2.18zm3.35-2.914v-2.419l-1.374.497c-1.117.41-1.46.864-1.46 1.792 0 .842.386 1.144 1.03 1.144.709 0 1.31-.367 1.804-1.014z"/></g><g><path fill="#fff" d="M31.537 15.827h5.562V14.64h-.924l-3.607-5.593 2.598-2.504h1.375V5.355h-5.026v1.188h1.375l-3.565 4.404V0h-.752L24.45 1.62v.474l1.654.929V14.64h-1.396v1.187h5.562V14.64h-.945v-2.462l1.117-1.08 2.104 3.542h-1.01z"/></g><g><path fill="#fff" d="M44.337 15.827h5.562V14.64h-.924l-3.607-5.593 2.598-2.504h1.375V5.355h-5.026v1.188h1.375l-3.565 4.404V0h-.752L37.25 1.62v.474l1.654.929V14.64h-1.396v1.187h5.562V14.64h-.945v-2.462l1.117-1.08 2.104 3.542h-1.01z"/></g><g><path fill="#fff" d="M49.63 10.494c0-2.785 2.34-5.484 5.648-5.484 3.307 0 5.648 2.7 5.648 5.484 0 2.786-2.34 5.507-5.648 5.507-3.307 0-5.648-2.721-5.648-5.507zm7.71 0c0-3.627-.795-4.275-2.062-4.275s-2.062.67-2.062 4.275c0 3.585.773 4.297 2.062 4.297 1.289 0 2.062-.712 2.062-4.297z"/></g></g></g></svg>