<svg xmlns="http://www.w3.org/2000/svg" width="92" height="24" viewBox="0 0 92 24"><g><g><g/><g><path fill="#100a30" d="M0 22.513l2.656-.843V3.534L0 2.69V1.46h11.077c5.992 0 9.587 2.494 9.587 6.964 0 4.437-3.239 6.996-7.579 6.996-1.134 0-2.332-.162-3.563-.519l-.971-.259v7.028l2.817.843v1.23H0zm8.55-9.426l1.685.13c.389.032.777.032 1.101.032 2.785 0 3.304-1.165 3.304-4.825 0-4.081-.842-4.924-4.049-4.924h-2.04z"/></g><g><path fill="#100a30" d="M24.901 23.996c-2.332 0-4.081-1.458-4.081-3.725 0-2.818 1.976-4.178 6.38-4.923l2.754-.486v-2.397c0-2.3-1.199-2.85-3.596-2.85-1.068 0-1.846.13-2.3.26v.064c1.264.26 1.782 1.199 1.782 2.203 0 1.133-.939 2.008-2.202 2.008-1.393 0-2.332-1.037-2.332-2.494 0-2.948 3.919-4.146 6.801-4.146 4.34 0 6.705 1.684 6.705 7.352v5.442c0 .971.291 1.1 2.073 1.263v1.295c-.842.486-1.879 1.069-3.466 1.069-2.138 0-3.465-1.166-3.465-3.207-.94 1.62-2.818 3.272-5.053 3.272zm5.053-4.373v-3.627l-2.073.745c-1.684.615-2.203 1.295-2.203 2.688 0 1.263.583 1.717 1.555 1.717 1.069 0 1.976-.551 2.72-1.523z"/></g><g><path fill="#100a30" d="M47.568 23.74h8.389v-1.78h-1.393l-5.441-8.39 3.919-3.756h2.073V8.032h-7.58v1.782h2.074l-5.377 6.607V0H43.1L36.88 2.43v.712l2.494 1.392V21.96h-2.105v1.782h8.388V21.96h-1.425v-3.693l1.684-1.62 3.174 5.313h-1.522z"/></g><g><path fill="#100a30" d="M66.868 23.74h8.389v-1.78h-1.393l-5.441-8.39 3.919-3.756h2.073V8.032h-7.58v1.782h2.074l-5.377 6.607V0H62.4L56.18 2.43v.712l2.494 1.392V21.96h-2.105v1.782h8.388V21.96h-1.425v-3.693l1.685-1.62 3.174 5.313h-1.523z"/></g><g><path fill="#100a30" d="M74.86 15.737c0-4.178 3.53-8.227 8.518-8.227 4.988 0 8.518 4.049 8.518 8.227s-3.53 8.259-8.518 8.259c-4.988 0-8.518-4.081-8.518-8.26zm11.628 0c0-5.442-1.199-6.413-3.11-6.413-1.91 0-3.11 1.004-3.11 6.413 0 5.376 1.167 6.445 3.11 6.445 1.944 0 3.11-1.069 3.11-6.445z"/></g></g></g></svg>